<?xml version="1.0" encoding="UTF-8" standalone="no"?>
<!DOCTYPE svg PUBLIC "-//W3C//DTD SVG 1.1//EN"
 "http://www.w3.org/Graphics/SVG/1.1/DTD/svg11.dtd">
<!-- Generated by graphviz version 2.40.1 (20161225.0304)
 -->
<!-- Title: a_graph Pages: 1 -->
<svg width="348pt" height="119pt"
 viewBox="0.00 0.00 348.00 119.00" xmlns="http://www.w3.org/2000/svg" xmlns:xlink="http://www.w3.org/1999/xlink">
<g id="graph0" class="graph" transform="scale(1 1) rotate(0) translate(4 115)">
<title>a_graph</title>
<polygon fill="#ffffff" stroke="transparent" points="-4,4 -4,-115 344,-115 344,4 -4,4"/>
<!-- T7319 -->
<g id="node1" class="node">
<title>T7319</title>
<polygon fill="none" stroke="#0058ad" points="0,-81.5 0,-110.5 209,-110.5 209,-81.5 0,-81.5"/>
<text text-anchor="middle" x="28.5" y="-92.3" font-family="Times,serif" font-size="14.00" fill="#0058ad">a 39 31</text>
<polyline fill="none" stroke="#0058ad" points="57,-81.5 57,-110.5 "/>
<text text-anchor="middle" x="82.5" y="-92.3" font-family="Times,serif" font-size="14.00" fill="#0058ad">r 42 []</text>
<polyline fill="none" stroke="#0058ad" points="108,-81.5 108,-110.5 "/>
<text text-anchor="middle" x="133" y="-92.3" font-family="Times,serif" font-size="14.00" fill="#0058ad">a 41 4</text>
<polyline fill="none" stroke="#0058ad" points="158,-81.5 158,-110.5 "/>
<text text-anchor="middle" x="183.5" y="-92.3" font-family="Times,serif" font-size="14.00" fill="#0058ad">r 42 []</text>
</g>
<!-- T7317 -->
<g id="node2" class="node">
<title>T7317</title>
<polygon fill="none" stroke="#0058ad" points="53,-.5 53,-29.5 340,-29.5 340,-.5 53,-.5"/>
<text text-anchor="middle" x="78" y="-11.3" font-family="Times,serif" font-size="14.00" fill="#0058ad">a 42 1</text>
<polyline fill="none" stroke="#0058ad" points="103,-.5 103,-29.5 "/>
<text text-anchor="middle" x="142.5" y="-11.3" font-family="Times,serif" font-size="14.00" fill="#0058ad">r 41 [1 2 3]</text>
<polyline fill="none" stroke="#0058ad" points="182,-.5 182,-29.5 "/>
<text text-anchor="middle" x="221.5" y="-11.3" font-family="Times,serif" font-size="14.00" fill="#0058ad">r 41 [1 2 3]</text>
<polyline fill="none" stroke="#0058ad" points="261,-.5 261,-29.5 "/>
<text text-anchor="middle" x="300.5" y="-11.3" font-family="Times,serif" font-size="14.00" fill="#0058ad">r 41 [1 2 3]</text>
</g>
<!-- T7319&#45;&gt;T7317 -->
<g id="edge1" class="edge">
<title>T7319:f1&#45;&gt;T7317:f0</title>
<path fill="none" stroke="#5b00c0" d="M82.5,-81C82.5,-62.1392 79.071,-55.1604 77.8923,-40.384"/>
<polygon fill="#5b00c0" stroke="#5b00c0" points="81.3752,-39.8607 77.5,-30 74.3802,-40.125 81.3752,-39.8607"/>
<text text-anchor="middle" x="89" y="-51.8" font-family="Times,serif" font-size="14.00" fill="#5b00c0">rw</text>
</g>
<!-- T7317&#45;&gt;T7319 -->
<g id="edge2" class="edge">
<title>T7317:f1&#45;&gt;T7319:f2</title>
<path fill="none" stroke="#5b00c0" d="M142.5,-30C142.5,-49.2407 136.2109,-55.8677 134.1473,-70.9695"/>
<polygon fill="#5b00c0" stroke="#5b00c0" points="130.6513,-70.7953 133.5,-81 137.6368,-71.2462 130.6513,-70.7953"/>
<text text-anchor="middle" x="147" y="-51.8" font-family="Times,serif" font-size="14.00" fill="#5b00c0">rw</text>
</g>
</g>
</svg>
