<?xml version="1.0" encoding="UTF-8" standalone="no"?>
<!DOCTYPE svg PUBLIC "-//W3C//DTD SVG 1.1//EN"
 "http://www.w3.org/Graphics/SVG/1.1/DTD/svg11.dtd">
<!-- Generated by graphviz version 2.40.1 (20161225.0304)
 -->
<!-- Title: a_graph Pages: 1 -->
<svg width="405pt" height="119pt"
 viewBox="0.00 0.00 405.00 119.00" xmlns="http://www.w3.org/2000/svg" xmlns:xlink="http://www.w3.org/1999/xlink">
<g id="graph0" class="graph" transform="scale(1 1) rotate(0) translate(4 115)">
<title>a_graph</title>
<polygon fill="#ffffff" stroke="transparent" points="-4,4 -4,-115 401,-115 401,4 -4,4"/>
<!-- T75 -->
<g id="node1" class="node">
<title>T75</title>
<polygon fill="none" stroke="#0058ad" points="0,-81.5 0,-110.5 354,-110.5 354,-81.5 0,-81.5"/>
<text text-anchor="middle" x="105.5" y="-92.3" font-family="Times,serif" font-size="14.00" fill="#0058ad">r 9 [1 4 3 6 5 7 8 9 10 11 12 15 16]</text>
<polyline fill="none" stroke="#0058ad" points="211,-81.5 211,-110.5 "/>
<text text-anchor="middle" x="236" y="-92.3" font-family="Times,serif" font-size="14.00" fill="#0058ad">a 8 23</text>
<polyline fill="none" stroke="#0058ad" points="261,-81.5 261,-110.5 "/>
<text text-anchor="middle" x="307.5" y="-92.3" font-family="Times,serif" font-size="14.00" fill="#0058ad">r 7 [1 2 4 3 5]</text>
</g>
<!-- T77 -->
<g id="node2" class="node">
<title>T77</title>
<polygon fill="none" stroke="#0058ad" points="39,-.5 39,-29.5 397,-29.5 397,-.5 39,-.5"/>
<text text-anchor="middle" x="196" y="-11.3" font-family="Times,serif" font-size="14.00" fill="#0058ad">r 8 [5 9 8 2 3 4 14 10 11 15 12 13 16 18 17 20 21 6 7]</text>
<polyline fill="none" stroke="#0058ad" points="353,-.5 353,-29.5 "/>
<text text-anchor="middle" x="375" y="-11.3" font-family="Times,serif" font-size="14.00" fill="#0058ad">a 7 6</text>
</g>
<!-- T75&#45;&gt;T77 -->
<g id="edge1" class="edge">
<title>T75:f2&#45;&gt;T77:f1</title>
<path fill="none" stroke="#5b00c0" d="M354,-96C381.4156,-96 376.6546,-68.0649 375.2852,-40.2078"/>
<polygon fill="#5b00c0" stroke="#5b00c0" points="378.778,-39.8983 375,-30 371.7807,-40.0939 378.778,-39.8983"/>
<text text-anchor="middle" x="383.5" y="-51.8" font-family="Times,serif" font-size="14.00" fill="#5b00c0">rw</text>
</g>
<!-- T77&#45;&gt;T75 -->
<g id="edge2" class="edge">
<title>T77:f0&#45;&gt;T75:f1</title>
<path fill="none" stroke="#5b00c0" d="M196,-30C196,-54.7558 225.541,-53.3529 233.8494,-70.7515"/>
<polygon fill="#5b00c0" stroke="#5b00c0" points="230.5208,-71.932 236,-81 237.3716,-70.4943 230.5208,-71.932"/>
<text text-anchor="middle" x="234.5" y="-51.8" font-family="Times,serif" font-size="14.00" fill="#5b00c0">rw</text>
</g>
</g>
</svg>
