<?xml version="1.0" encoding="UTF-8" standalone="no"?>
<!DOCTYPE svg PUBLIC "-//W3C//DTD SVG 1.1//EN"
 "http://www.w3.org/Graphics/SVG/1.1/DTD/svg11.dtd">
<!-- Generated by graphviz version 2.40.1 (20161225.0304)
 -->
<!-- Title: a_graph Pages: 1 -->
<svg width="4592pt" height="200pt"
 viewBox="0.00 0.00 4592.00 200.00" xmlns="http://www.w3.org/2000/svg" xmlns:xlink="http://www.w3.org/1999/xlink">
<g id="graph0" class="graph" transform="scale(1 1) rotate(0) translate(4 196)">
<title>a_graph</title>
<polygon fill="#ffffff" stroke="transparent" points="-4,4 -4,-196 4588,-196 4588,4 -4,4"/>
<!-- T981 -->
<g id="node1" class="node">
<title>T981</title>
<polygon fill="none" stroke="#0058ad" points="0,-162.5 0,-191.5 1725,-191.5 1725,-162.5 0,-162.5"/>
<text text-anchor="middle" x="22" y="-173.3" font-family="Times,serif" font-size="14.00" fill="#0058ad">a 1 5</text>
<polyline fill="none" stroke="#0058ad" points="44,-162.5 44,-191.5 "/>
<text text-anchor="middle" x="827.5" y="-173.3" font-family="Times,serif" font-size="14.00" fill="#0058ad">r 6 [1 3 2 4 7 6 8 9 10 5 12 13 14 15 16 17 11 18 21 22 19 20 25 26 27 28 29 30 23 24 31 33 34 35 32 36 37 39 38 41 40 42 43 44 45 47 46 49 48 50 51 52 53 54 55 56 57 59 58 60 61 62 63 64 65 66 67 71 68 69 70 74 72 73 75 76 77 78 80 85 86 88 79 81 82 83 84 89 90 92 93 87]</text>
<polyline fill="none" stroke="#0058ad" points="1611,-162.5 1611,-191.5 "/>
<text text-anchor="middle" x="1639.5" y="-173.3" font-family="Times,serif" font-size="14.00" fill="#0058ad">a 14 81</text>
<polyline fill="none" stroke="#0058ad" points="1668,-162.5 1668,-191.5 "/>
<text text-anchor="middle" x="1696.5" y="-173.3" font-family="Times,serif" font-size="14.00" fill="#0058ad">a 14 82</text>
</g>
<!-- T987 -->
<g id="node2" class="node">
<title>T987</title>
<polygon fill="none" stroke="#0058ad" points="1671,-81.5 1671,-110.5 4584,-110.5 4584,-81.5 1671,-81.5"/>
<text text-anchor="middle" x="1699.5" y="-92.3" font-family="Times,serif" font-size="14.00" fill="#0058ad">a 14 85</text>
<polyline fill="none" stroke="#0058ad" points="1728,-81.5 1728,-110.5 "/>
<text text-anchor="middle" x="1862.5" y="-92.3" font-family="Times,serif" font-size="14.00" fill="#0058ad">r 17 [4 5 1 7 9 10 11 12 13 14 2 3 15 16 17 8]</text>
<polyline fill="none" stroke="#0058ad" points="1997,-81.5 1997,-110.5 "/>
<text text-anchor="middle" x="2131.5" y="-92.3" font-family="Times,serif" font-size="14.00" fill="#0058ad">r 17 [4 5 1 7 9 10 11 12 13 14 2 3 15 16 17 8]</text>
<polyline fill="none" stroke="#0058ad" points="2266,-81.5 2266,-110.5 "/>
<text text-anchor="middle" x="2949.5" y="-92.3" font-family="Times,serif" font-size="14.00" fill="#0058ad">r 14 [3 4 7 8 9 1 2 5 6 10 11 12 13 15 16 17 18 20 21 24 22 23 25 26 27 28 14 29 19 32 33 30 31 36 37 34 39 40 35 38 41 42 43 44 45 46 51 54 55 50 56 58 59 47 48 49 60 61 57 65 66 67 62 63 64 52 53 69 72 70 71 76 77 78 75 79 80 81 82 85]</text>
<polyline fill="none" stroke="#0058ad" points="3633,-81.5 3633,-110.5 "/>
<text text-anchor="middle" x="3945.5" y="-92.3" font-family="Times,serif" font-size="14.00" fill="#0058ad">r 16 [2 3 4 5 6 7 8 9 10 1 14 15 13 17 11 12 19 16 20 18 24 21 22 23 25 27 28 33 31 32 26 29 30 36 37 38 35]</text>
<polyline fill="none" stroke="#0058ad" points="4258,-81.5 4258,-110.5 "/>
<text text-anchor="middle" x="4286.5" y="-92.3" font-family="Times,serif" font-size="14.00" fill="#0058ad">a 14 86</text>
<polyline fill="none" stroke="#0058ad" points="4315,-81.5 4315,-110.5 "/>
<text text-anchor="middle" x="4449.5" y="-92.3" font-family="Times,serif" font-size="14.00" fill="#0058ad">r 17 [4 5 1 7 9 10 11 12 13 14 2 3 15 16 17 8]</text>
</g>
<!-- T981&#45;&gt;T987 -->
<g id="edge1" class="edge">
<title>T981:f3&#45;&gt;T987:f0</title>
<path fill="none" stroke="#c02700" d="M1696.5,-162C1696.5,-143.1967 1698.5574,-136.1325 1699.2646,-121.3645"/>
<polygon fill="#c02700" stroke="#c02700" points="1702.7719,-121.0769 1699.5,-111 1695.7737,-120.9179 1702.7719,-121.0769"/>
<text text-anchor="middle" x="1709.5" y="-132.8" font-family="Times,serif" font-size="14.00" fill="#c02700">ww</text>
</g>
<!-- T983 -->
<g id="node3" class="node">
<title>T983</title>
<polygon fill="none" stroke="#0058ad" points="1274,-.5 1274,-29.5 3121,-29.5 3121,-.5 1274,-.5"/>
<text text-anchor="middle" x="1302.5" y="-11.3" font-family="Times,serif" font-size="14.00" fill="#0058ad">a 17 18</text>
<polyline fill="none" stroke="#0058ad" points="1331,-.5 1331,-29.5 "/>
<text text-anchor="middle" x="1359.5" y="-11.3" font-family="Times,serif" font-size="14.00" fill="#0058ad">a 17 19</text>
<polyline fill="none" stroke="#0058ad" points="1388,-.5 1388,-29.5 "/>
<text text-anchor="middle" x="1416.5" y="-11.3" font-family="Times,serif" font-size="14.00" fill="#0058ad">a 16 39</text>
<polyline fill="none" stroke="#0058ad" points="1445,-.5 1445,-29.5 "/>
<text text-anchor="middle" x="2102.5" y="-11.3" font-family="Times,serif" font-size="14.00" fill="#0058ad">r 14 [3 4 7 8 9 1 2 5 6 10 11 12 13 15 16 17 18 20 21 24 22 23 25 26 27 28 14 29 19 32 33 30 31 36 37 34 39 40 35 38 41 42 43 44 45 46 51 54 55 50 56 58 59 47 48 49 60 61 57 65 66 67 62 63 64 52 53 69 72 70 71 76 77 78 75 79 80]</text>
<polyline fill="none" stroke="#0058ad" points="2760,-.5 2760,-29.5 "/>
<text text-anchor="middle" x="2912" y="-11.3" font-family="Times,serif" font-size="14.00" fill="#0058ad">r 17 [4 5 1 7 9 10 11 12 13 14 2 3 15 16 17 8 18 19]</text>
<polyline fill="none" stroke="#0058ad" points="3064,-.5 3064,-29.5 "/>
<text text-anchor="middle" x="3092.5" y="-11.3" font-family="Times,serif" font-size="14.00" fill="#0058ad">a 17 20</text>
</g>
<!-- T987&#45;&gt;T983 -->
<g id="edge2" class="edge">
<title>T987:f1&#45;&gt;T983:f0</title>
<path fill="none" stroke="#5b00c0" d="M1862.5,-81C1862.5,13.4787 1746.4719,-57.7729 1652.5,-48 1635.0255,-46.1827 1364.1085,-48.8421 1311.3617,-35.0739"/>
<polygon fill="#5b00c0" stroke="#5b00c0" points="1312.9173,-31.9315 1302.5,-30 1309.4391,-38.0062 1312.9173,-31.9315"/>
<text text-anchor="middle" x="1867" y="-51.8" font-family="Times,serif" font-size="14.00" fill="#5b00c0">rw</text>
</g>
<!-- T983&#45;&gt;T981 -->
<g id="edge3" class="edge">
<title>T983:f3&#45;&gt;T981:f2</title>
<path fill="none" stroke="#5b00c0" d="M2102.5,-30C2102.5,-55.02 1671.1409,-31.3112 1652.5,-48 1617.1039,-79.6895 1636.3773,-107.018 1639.1777,-151.8419"/>
<polygon fill="#5b00c0" stroke="#5b00c0" points="1635.6846,-152.116 1639.5,-162 1642.681,-151.894 1635.6846,-152.116"/>
<text text-anchor="middle" x="1641" y="-92.3" font-family="Times,serif" font-size="14.00" fill="#5b00c0">rw</text>
</g>
</g>
</svg>
