<?xml version="1.0" encoding="UTF-8" standalone="no"?>
<!DOCTYPE svg PUBLIC "-//W3C//DTD SVG 1.1//EN"
 "http://www.w3.org/Graphics/SVG/1.1/DTD/svg11.dtd">
<!-- Generated by graphviz version 2.40.1 (20161225.0304)
 -->
<!-- Title: a_graph Pages: 1 -->
<svg width="3613pt" height="200pt"
 viewBox="0.00 0.00 3612.50 200.00" xmlns="http://www.w3.org/2000/svg" xmlns:xlink="http://www.w3.org/1999/xlink">
<g id="graph0" class="graph" transform="scale(1 1) rotate(0) translate(4 196)">
<title>a_graph</title>
<polygon fill="#ffffff" stroke="transparent" points="-4,4 -4,-196 3608.5,-196 3608.5,4 -4,4"/>
<!-- T7505 -->
<g id="node1" class="node">
<title>T7505</title>
<polygon fill="none" stroke="#0058ad" points="0,-162.5 0,-191.5 2800,-191.5 2800,-162.5 0,-162.5"/>
<text text-anchor="middle" x="895" y="-173.3" font-family="Times,serif" font-size="14.00" fill="#0058ad">r 38 [1 2 3 4 5 6 7 8 9 10 11 12 14 15 13 16 17 18 19 20 21 22 23 24 25 26 27 28 29 30 31 32 33 34 36 35 37 39 40 38 42 43 44 41 45 46 47 48 52 50 51 53 49 54 55 56 57 58 59 60 61 64 62 65 63 66 67 68 69 70 71 72 73 74 75 77 78 80 76 79 81 82 83 84 85 86 87 88 89 91 92 90 94 95 93 96 97 98 99 100 101 102 103]</text>
<polyline fill="none" stroke="#0058ad" points="1790,-162.5 1790,-191.5 "/>
<text text-anchor="middle" x="1818.5" y="-173.3" font-family="Times,serif" font-size="14.00" fill="#0058ad">a 42 42</text>
<polyline fill="none" stroke="#0058ad" points="1847,-162.5 1847,-191.5 "/>
<text text-anchor="middle" x="2323.5" y="-173.3" font-family="Times,serif" font-size="14.00" fill="#0058ad">r 37 [1 2 4 3 5 6 7 8 9 10 11 12 13 14 16 15 17 18 19 20 21 22 23 24 25 26 27 28 29 30 31 32 33 34 35 36 37 38 39 40 41 42 43 44 45 46 47 48 49 50 51 52 54 53 55 56]</text>
</g>
<!-- T7501 -->
<g id="node2" class="node">
<title>T7501</title>
<polygon fill="none" stroke="#0058ad" points="1563.5,-81.5 1563.5,-110.5 3046.5,-110.5 3046.5,-81.5 1563.5,-81.5"/>
<text text-anchor="middle" x="1746.5" y="-92.3" font-family="Times,serif" font-size="14.00" fill="#0058ad">r 43 [1 2 3 6 7 8 4 5 10 11 15 12 13 14 18 9 20 16 17 21 22 19]</text>
<polyline fill="none" stroke="#0058ad" points="1929.5,-81.5 1929.5,-110.5 "/>
<text text-anchor="middle" x="2112.5" y="-92.3" font-family="Times,serif" font-size="14.00" fill="#0058ad">r 43 [1 2 3 6 7 8 4 5 10 11 15 12 13 14 18 9 20 16 17 21 22 19]</text>
<polyline fill="none" stroke="#0058ad" points="2295.5,-81.5 2295.5,-110.5 "/>
<text text-anchor="middle" x="2324" y="-92.3" font-family="Times,serif" font-size="14.00" fill="#0058ad">a 37 57</text>
<polyline fill="none" stroke="#0058ad" points="2352.5,-81.5 2352.5,-110.5 "/>
<text text-anchor="middle" x="2699.5" y="-92.3" font-family="Times,serif" font-size="14.00" fill="#0058ad">r 42 [2 1 5 3 4 6 7 8 9 10 11 12 13 14 16 17 18 19 20 21 15 23 22 25 26 24 27 28 29 30 31 34 35 32 37 38 40 36 39 33 41]</text>
</g>
<!-- T7505&#45;&gt;T7501 -->
<g id="edge1" class="edge">
<title>T7505:f2&#45;&gt;T7501:f2</title>
<path fill="none" stroke="#5b00c0" d="M2324,-162C2324,-143.2292 2324,-136.1168 2324,-121.3535"/>
<polygon fill="#5b00c0" stroke="#5b00c0" points="2327.5001,-121 2324,-111 2320.5001,-121 2327.5001,-121"/>
<text text-anchor="middle" x="2331.5" y="-132.8" font-family="Times,serif" font-size="14.00" fill="#5b00c0">rw</text>
</g>
<!-- T7501&#45;&gt;T7505 -->
<g id="edge3" class="edge">
<title>T7501:f3&#45;&gt;T7505:f1</title>
<path fill="none" stroke="#5b00c0" d="M2700,-111C2700,-132.9672 2326.932,-127.7558 2305,-129 2200.5135,-134.9273 1843.7991,-59.059 1820.2262,-151.8344"/>
<polygon fill="#5b00c0" stroke="#5b00c0" points="1816.7228,-151.6528 1819,-162 1823.6725,-152.4911 1816.7228,-151.6528"/>
<text text-anchor="middle" x="2312.5" y="-132.8" font-family="Times,serif" font-size="14.00" fill="#5b00c0">rw</text>
</g>
<!-- T7502 -->
<g id="node3" class="node">
<title>T7502</title>
<polygon fill="none" stroke="#0058ad" points="1063.5,-.5 1063.5,-29.5 3604.5,-29.5 3604.5,-.5 1063.5,-.5"/>
<text text-anchor="middle" x="1410.5" y="-11.3" font-family="Times,serif" font-size="14.00" fill="#0058ad">r 42 [2 1 5 3 4 6 7 8 9 10 11 12 13 14 16 17 18 19 20 21 15 23 22 25 26 24 27 28 29 30 31 34 35 32 37 38 40 36 39 33 41]</text>
<polyline fill="none" stroke="#0058ad" points="1757.5,-.5 1757.5,-29.5 "/>
<text text-anchor="middle" x="1786" y="-11.3" font-family="Times,serif" font-size="14.00" fill="#0058ad">a 43 23</text>
<polyline fill="none" stroke="#0058ad" points="1814.5,-.5 1814.5,-29.5 "/>
<text text-anchor="middle" x="2709.5" y="-11.3" font-family="Times,serif" font-size="14.00" fill="#0058ad">r 38 [1 2 3 4 5 6 7 8 9 10 11 12 14 15 13 16 17 18 19 20 21 22 23 24 25 26 27 28 29 30 31 32 33 34 36 35 37 39 40 38 42 43 44 41 45 46 47 48 52 50 51 53 49 54 55 56 57 58 59 60 61 64 62 65 63 66 67 68 69 70 71 72 73 74 75 77 78 80 76 79 81 82 83 84 85 86 87 88 89 91 92 90 94 95 93 96 97 98 99 100 101 102 103]</text>
</g>
<!-- T7501&#45;&gt;T7502 -->
<g id="edge2" class="edge">
<title>T7501:f0&#45;&gt;T7502:f1</title>
<path fill="none" stroke="#5b00c0" d="M1746,-81C1746,-56.2442 1775.541,-57.6471 1783.8494,-40.2485"/>
<polygon fill="#5b00c0" stroke="#5b00c0" points="1787.3716,-40.5057 1786,-30 1780.5208,-39.068 1787.3716,-40.5057"/>
<text text-anchor="middle" x="1784.5" y="-51.8" font-family="Times,serif" font-size="14.00" fill="#5b00c0">rw</text>
</g>
<!-- T7502&#45;&gt;T7505 -->
<g id="edge4" class="edge">
<title>T7502:f0&#45;&gt;T7505:f1</title>
<path fill="none" stroke="#5b00c0" d="M1410,-30C1410,-97.6987 1475.8931,-86.4921 1539,-111 1594.6168,-132.5991 1794.4799,-102.5488 1816.9422,-152.1716"/>
<polygon fill="#5b00c0" stroke="#5b00c0" points="1813.5249,-152.9295 1819,-162 1820.3763,-151.4949 1813.5249,-152.9295"/>
<text text-anchor="middle" x="1546.5" y="-92.3" font-family="Times,serif" font-size="14.00" fill="#5b00c0">rw</text>
</g>
</g>
</svg>
