<?xml version="1.0" encoding="UTF-8" standalone="no"?>
<!DOCTYPE svg PUBLIC "-//W3C//DTD SVG 1.1//EN"
 "http://www.w3.org/Graphics/SVG/1.1/DTD/svg11.dtd">
<!-- Generated by graphviz version 2.40.1 (20161225.0304)
 -->
<!-- Title: a_graph Pages: 1 -->
<svg width="4564pt" height="281pt"
 viewBox="0.00 0.00 4563.50 281.00" xmlns="http://www.w3.org/2000/svg" xmlns:xlink="http://www.w3.org/1999/xlink">
<g id="graph0" class="graph" transform="scale(1 1) rotate(0) translate(4 277)">
<title>a_graph</title>
<polygon fill="#ffffff" stroke="transparent" points="-4,4 -4,-277 4559.5,-277 4559.5,4 -4,4"/>
<!-- T5392 -->
<g id="node1" class="node">
<title>T5392</title>
<polygon fill="none" stroke="#0058ad" points="1297.5,-243.5 1297.5,-272.5 1858.5,-272.5 1858.5,-243.5 1297.5,-243.5"/>
<text text-anchor="middle" x="1326" y="-254.3" font-family="Times,serif" font-size="14.00" fill="#0058ad">a 48 26</text>
<polyline fill="none" stroke="#0058ad" points="1354.5,-243.5 1354.5,-272.5 "/>
<text text-anchor="middle" x="1606.5" y="-254.3" font-family="Times,serif" font-size="14.00" fill="#0058ad">r 48 [2 3 4 5 6 7 8 9 1 10 11 12 13 14 15 16 17 18 19 20 21 22 23 25 27 28 29 30 31 26]</text>
</g>
<!-- T5394 -->
<g id="node2" class="node">
<title>T5394</title>
<polygon fill="none" stroke="#0058ad" points="1364.5,-162.5 1364.5,-191.5 4555.5,-191.5 4555.5,-162.5 1364.5,-162.5"/>
<text text-anchor="middle" x="1616.5" y="-173.3" font-family="Times,serif" font-size="14.00" fill="#0058ad">r 48 [2 3 4 5 6 7 8 9 1 10 11 12 13 14 15 16 17 18 19 20 21 22 23 25 27 28 29 30 31 26]</text>
<polyline fill="none" stroke="#0058ad" points="1868.5,-162.5 1868.5,-191.5 "/>
<text text-anchor="middle" x="2431" y="-173.3" font-family="Times,serif" font-size="14.00" fill="#0058ad">r 47 [1 4 3 7 8 9 2 13 14 15 10 11 12 18 17 5 6 19 22 20 16 23 21 24 26 30 25 31 32 35 38 28 33 34 27 39 40 36 37 42 43 44 46 45 48 41 29 49 51 50 52 57 54 55 47 58 60 53 62 59 56 63 64 61 65 67]</text>
<polyline fill="none" stroke="#0058ad" points="2993.5,-162.5 2993.5,-191.5 "/>
<text text-anchor="middle" x="3245.5" y="-173.3" font-family="Times,serif" font-size="14.00" fill="#0058ad">r 48 [2 3 4 5 6 7 8 9 1 10 11 12 13 14 15 16 17 18 19 20 21 22 23 25 27 28 29 30 31 26]</text>
<polyline fill="none" stroke="#0058ad" points="3497.5,-162.5 3497.5,-191.5 "/>
<text text-anchor="middle" x="3749.5" y="-173.3" font-family="Times,serif" font-size="14.00" fill="#0058ad">r 48 [2 3 4 5 6 7 8 9 1 10 11 12 13 14 15 16 17 18 19 20 21 22 23 25 27 28 29 30 31 26]</text>
<polyline fill="none" stroke="#0058ad" points="4001.5,-162.5 4001.5,-191.5 "/>
<text text-anchor="middle" x="4026.5" y="-173.3" font-family="Times,serif" font-size="14.00" fill="#0058ad">a 4 90</text>
<polyline fill="none" stroke="#0058ad" points="4051.5,-162.5 4051.5,-191.5 "/>
<text text-anchor="middle" x="4303.5" y="-173.3" font-family="Times,serif" font-size="14.00" fill="#0058ad">r 48 [2 3 4 5 6 7 8 9 1 10 11 12 13 14 15 16 17 18 19 20 21 22 23 25 27 28 29 30 31 26]</text>
</g>
<!-- T5392&#45;&gt;T5394 -->
<g id="edge1" class="edge">
<title>T5392:f0&#45;&gt;T5394:f0</title>
<path fill="none" stroke="#c000a5" d="M1326,-243C1326,-232.8651 1334.5964,-233.5742 1340,-225 1344.7192,-217.5119 1349.0844,-194.6985 1355.897,-183.4331"/>
<polygon fill="#c000a5" stroke="#c000a5" points="1358.3444,-185.9591 1364,-177 1353.9918,-180.4767 1358.3444,-185.9591"/>
<text text-anchor="middle" x="1352.5" y="-213.8" font-family="Times,serif" font-size="14.00" fill="#c000a5">wr</text>
</g>
<!-- T5397 -->
<g id="node3" class="node">
<title>T5397</title>
<polygon fill="none" stroke="#0058ad" points="1308,-81.5 1308,-110.5 2150,-110.5 2150,-81.5 1308,-81.5"/>
<text text-anchor="middle" x="1336.5" y="-92.3" font-family="Times,serif" font-size="14.00" fill="#0058ad">a 48 32</text>
<polyline fill="none" stroke="#0058ad" points="1365,-81.5 1365,-110.5 "/>
<text text-anchor="middle" x="1729" y="-92.3" font-family="Times,serif" font-size="14.00" fill="#0058ad">r 46 [1 3 4 5 6 2 8 9 10 7 11 13 12 14 15 17 21 22 18 19 16 23 24 25 26 27 29 30 31 20 33 36 35 32 28 34 38 37 39 40 41 42 44]</text>
<polyline fill="none" stroke="#0058ad" points="2093,-81.5 2093,-110.5 "/>
<text text-anchor="middle" x="2121.5" y="-92.3" font-family="Times,serif" font-size="14.00" fill="#0058ad">a 37 76</text>
</g>
<!-- T5392&#45;&gt;T5397 -->
<g id="edge2" class="edge">
<title>T5392:f0&#45;&gt;T5397:f0</title>
<path fill="none" stroke="#c02700" d="M1326,-243C1326,-187.7275 1334.8257,-171.7333 1335.8945,-121.2171"/>
<polygon fill="#c02700" stroke="#c02700" points="1339.3964,-121.0357 1336,-111 1332.3968,-120.9633 1339.3964,-121.0357"/>
<text text-anchor="middle" x="1342" y="-173.3" font-family="Times,serif" font-size="14.00" fill="#c02700">ww</text>
</g>
<!-- T5394&#45;&gt;T5397 -->
<g id="edge3" class="edge">
<title>T5394:f0&#45;&gt;T5397:f0</title>
<path fill="none" stroke="#5b00c0" d="M1364,-177C1357.621,-177 1343.5033,-139.7856 1338.1315,-120.8675"/>
<polygon fill="#5b00c0" stroke="#5b00c0" points="1341.5326,-120.0355 1336,-111 1334.6904,-121.5136 1341.5326,-120.0355"/>
<text text-anchor="middle" x="1352.5" y="-132.8" font-family="Times,serif" font-size="14.00" fill="#5b00c0">rw</text>
</g>
<!-- T5391 -->
<g id="node4" class="node">
<title>T5391</title>
<polygon fill="none" stroke="#0058ad" points="0,-.5 0,-29.5 2794,-29.5 2794,-.5 0,-.5"/>
<text text-anchor="middle" x="562.5" y="-11.3" font-family="Times,serif" font-size="14.00" fill="#0058ad">r 47 [1 4 3 7 8 9 2 13 14 15 10 11 12 18 17 5 6 19 22 20 16 23 21 24 26 30 25 31 32 35 38 28 33 34 27 39 40 36 37 42 43 44 46 45 48 41 29 49 51 50 52 57 54 55 47 58 60 53 62 59 56 63 64 61 65 67]</text>
<polyline fill="none" stroke="#0058ad" points="1125,-.5 1125,-29.5 "/>
<text text-anchor="middle" x="1368.5" y="-11.3" font-family="Times,serif" font-size="14.00" fill="#0058ad">r 48 [2 3 4 5 6 7 8 9 1 10 11 12 13 14 15 16 17 18 19 20 21 22 23 25 27 28 29 30 31]</text>
<polyline fill="none" stroke="#0058ad" points="1612,-.5 1612,-29.5 "/>
<text text-anchor="middle" x="1640.5" y="-11.3" font-family="Times,serif" font-size="14.00" fill="#0058ad">a 46 45</text>
<polyline fill="none" stroke="#0058ad" points="1669,-.5 1669,-29.5 "/>
<text text-anchor="middle" x="2231.5" y="-11.3" font-family="Times,serif" font-size="14.00" fill="#0058ad">r 47 [1 4 3 7 8 9 2 13 14 15 10 11 12 18 17 5 6 19 22 20 16 23 21 24 26 30 25 31 32 35 38 28 33 34 27 39 40 36 37 42 43 44 46 45 48 41 29 49 51 50 52 57 54 55 47 58 60 53 62 59 56 63 64 61 65 67]</text>
</g>
<!-- T5397&#45;&gt;T5391 -->
<g id="edge4" class="edge">
<title>T5397:f1&#45;&gt;T5391:f2</title>
<path fill="none" stroke="#5b00c0" d="M1729,-81C1729,-39.6802 1655.4751,-69.056 1642.838,-39.887"/>
<polygon fill="#5b00c0" stroke="#5b00c0" points="1646.2688,-39.1918 1641,-30 1639.3867,-40.4713 1646.2688,-39.1918"/>
<text text-anchor="middle" x="1726.5" y="-51.8" font-family="Times,serif" font-size="14.00" fill="#5b00c0">rw</text>
</g>
<!-- T5391&#45;&gt;T5392 -->
<g id="edge5" class="edge">
<title>T5391:f1&#45;&gt;T5392:f0</title>
<path fill="none" stroke="#5b00c0" d="M1368,-30C1368,-68.1343 1316.3832,-47.0582 1299,-81 1259.0859,-158.9352 1279.4038,-226.5614 1291.0771,-249.5943"/>
<polygon fill="#5b00c0" stroke="#5b00c0" points="1288.3789,-251.8415 1297,-258 1294.101,-247.8095 1288.3789,-251.8415"/>
<text text-anchor="middle" x="1288.5" y="-132.8" font-family="Times,serif" font-size="14.00" fill="#5b00c0">rw</text>
</g>
</g>
</svg>
