<?xml version="1.0" encoding="UTF-8" standalone="no"?>
<!DOCTYPE svg PUBLIC "-//W3C//DTD SVG 1.1//EN"
 "http://www.w3.org/Graphics/SVG/1.1/DTD/svg11.dtd">
<!-- Generated by graphviz version 2.40.1 (20161225.0304)
 -->
<!-- Title: a_graph Pages: 1 -->
<svg width="300pt" height="119pt"
 viewBox="0.00 0.00 300.00 119.00" xmlns="http://www.w3.org/2000/svg" xmlns:xlink="http://www.w3.org/1999/xlink">
<g id="graph0" class="graph" transform="scale(1 1) rotate(0) translate(4 115)">
<title>a_graph</title>
<polygon fill="#ffffff" stroke="transparent" points="-4,4 -4,-115 296,-115 296,4 -4,4"/>
<!-- T58 -->
<g id="node1" class="node">
<title>T58</title>
<polygon fill="none" stroke="#0058ad" points="0,-81.5 0,-110.5 292,-110.5 292,-81.5 0,-81.5"/>
<text text-anchor="middle" x="22" y="-92.3" font-family="Times,serif" font-size="14.00" fill="#0058ad">a 7 5</text>
<polyline fill="none" stroke="#0058ad" points="44,-81.5 44,-110.5 "/>
<text text-anchor="middle" x="66" y="-92.3" font-family="Times,serif" font-size="14.00" fill="#0058ad">a 8 8</text>
<polyline fill="none" stroke="#0058ad" points="88,-81.5 88,-110.5 "/>
<text text-anchor="middle" x="190" y="-92.3" font-family="Times,serif" font-size="14.00" fill="#0058ad">r 9 [4 5 1 6 10 2 11 8 12 7 3 13 9]</text>
</g>
<!-- T59 -->
<g id="node2" class="node">
<title>T59</title>
<polygon fill="none" stroke="#0058ad" points="67.5,-.5 67.5,-29.5 210.5,-29.5 210.5,-.5 67.5,-.5"/>
<text text-anchor="middle" x="92.5" y="-11.3" font-family="Times,serif" font-size="14.00" fill="#0058ad">a 9 19</text>
<polyline fill="none" stroke="#0058ad" points="117.5,-.5 117.5,-29.5 "/>
<text text-anchor="middle" x="164" y="-11.3" font-family="Times,serif" font-size="14.00" fill="#0058ad">r 8 [2 3 1 4 5]</text>
</g>
<!-- T58&#45;&gt;T59 -->
<g id="edge1" class="edge">
<title>T58:f2&#45;&gt;T59:f0</title>
<path fill="none" stroke="#5b00c0" d="M190,-81C190,-59.8062 116.9651,-55.493 96.9946,-38.9151"/>
<polygon fill="#5b00c0" stroke="#5b00c0" points="99.9411,-37.0135 92,-30 93.8342,-40.4349 99.9411,-37.0135"/>
<text text-anchor="middle" x="173.5" y="-51.8" font-family="Times,serif" font-size="14.00" fill="#5b00c0">rw</text>
</g>
<!-- T59&#45;&gt;T58 -->
<g id="edge2" class="edge">
<title>T59:f1&#45;&gt;T58:f1</title>
<path fill="none" stroke="#5b00c0" d="M164,-30C164,-61.2631 122.7197,-31.7692 96,-48 82.5003,-56.2003 71.4654,-59.6999 67.5395,-70.8134"/>
<polygon fill="#5b00c0" stroke="#5b00c0" points="64.0337,-70.5892 66,-81 70.9551,-71.6353 64.0337,-70.5892"/>
<text text-anchor="middle" x="103.5" y="-51.8" font-family="Times,serif" font-size="14.00" fill="#5b00c0">rw</text>
</g>
</g>
</svg>
