<?xml version="1.0" encoding="UTF-8" standalone="no"?>
<!DOCTYPE svg PUBLIC "-//W3C//DTD SVG 1.1//EN"
 "http://www.w3.org/Graphics/SVG/1.1/DTD/svg11.dtd">
<!-- Generated by graphviz version 2.40.1 (20161225.0304)
 -->
<!-- Title: a_graph Pages: 1 -->
<svg width="2241pt" height="200pt"
 viewBox="0.00 0.00 2241.00 200.00" xmlns="http://www.w3.org/2000/svg" xmlns:xlink="http://www.w3.org/1999/xlink">
<g id="graph0" class="graph" transform="scale(1 1) rotate(0) translate(4 196)">
<title>a_graph</title>
<polygon fill="#ffffff" stroke="transparent" points="-4,4 -4,-196 2237,-196 2237,4 -4,4"/>
<!-- T2906 -->
<g id="node1" class="node">
<title>T2906</title>
<polygon fill="none" stroke="#0058ad" points="151.5,-162.5 151.5,-191.5 1923.5,-191.5 1923.5,-162.5 151.5,-162.5"/>
<text text-anchor="middle" x="180" y="-173.3" font-family="Times,serif" font-size="14.00" fill="#0058ad">a 20 19</text>
<polyline fill="none" stroke="#0058ad" points="208.5,-162.5 208.5,-191.5 "/>
<text text-anchor="middle" x="365.5" y="-173.3" font-family="Times,serif" font-size="14.00" fill="#0058ad">r 20 [1 3 2 4 6 7 5 8 9 12 13 14 15 10 11 16 17 18 19]</text>
<polyline fill="none" stroke="#0058ad" points="522.5,-162.5 522.5,-191.5 "/>
<text text-anchor="middle" x="1223" y="-173.3" font-family="Times,serif" font-size="14.00" fill="#0058ad">r 18 [1 2 3 4 5 6 7 8 9 10 11 12 15 14 16 13 17 18 19 20 21 23 24 22 25 26 27 28 29 30 31 32 33 34 35 36 38 37 39 40 41 42 43 44 45 46 47 48 49 50 51 53 52 54 55 56 57 58 60 61 62 63 64 59 65 66 67 68 69 70 71 72 75 73 74 80 76 81 82 83 78 79]</text>
</g>
<!-- T2902 -->
<g id="node3" class="node">
<title>T2902</title>
<polygon fill="none" stroke="#0058ad" points="486.5,-81.5 486.5,-110.5 1332.5,-110.5 1332.5,-81.5 486.5,-81.5"/>
<text text-anchor="middle" x="618" y="-92.3" font-family="Times,serif" font-size="14.00" fill="#0058ad">r 20 [1 3 2 4 6 7 5 8 9 12 13 14 15 10 11 16]</text>
<polyline fill="none" stroke="#0058ad" points="749.5,-81.5 749.5,-110.5 "/>
<text text-anchor="middle" x="778" y="-92.3" font-family="Times,serif" font-size="14.00" fill="#0058ad">a 18 84</text>
<polyline fill="none" stroke="#0058ad" points="806.5,-81.5 806.5,-110.5 "/>
<text text-anchor="middle" x="938" y="-92.3" font-family="Times,serif" font-size="14.00" fill="#0058ad">r 20 [1 3 2 4 6 7 5 8 9 12 13 14 15 10 11 16]</text>
<polyline fill="none" stroke="#0058ad" points="1069.5,-81.5 1069.5,-110.5 "/>
<text text-anchor="middle" x="1201" y="-92.3" font-family="Times,serif" font-size="14.00" fill="#0058ad">r 20 [1 3 2 4 6 7 5 8 9 12 13 14 15 10 11 16]</text>
</g>
<!-- T2906&#45;&gt;T2902 -->
<g id="edge1" class="edge">
<title>T2906:f2&#45;&gt;T2902:f1</title>
<path fill="none" stroke="#5b00c0" d="M1223.5,-162C1223.5,34.0069 793.0419,-298.4478 777.9086,-121.0196"/>
<polygon fill="#5b00c0" stroke="#5b00c0" points="781.4046,-120.8491 777.5,-111 774.4104,-121.1343 781.4046,-120.8491"/>
<text text-anchor="middle" x="1228" y="-132.8" font-family="Times,serif" font-size="14.00" fill="#5b00c0">rw</text>
</g>
<!-- T2903 -->
<g id="node2" class="node">
<title>T2903</title>
<polygon fill="none" stroke="#0058ad" points="0,-.5 0,-29.5 2233,-29.5 2233,-.5 0,-.5"/>
<text text-anchor="middle" x="131.5" y="-11.3" font-family="Times,serif" font-size="14.00" fill="#0058ad">r 20 [1 3 2 4 6 7 5 8 9 12 13 14 15 10 11 16]</text>
<polyline fill="none" stroke="#0058ad" points="263,-.5 263,-29.5 "/>
<text text-anchor="middle" x="291.5" y="-11.3" font-family="Times,serif" font-size="14.00" fill="#0058ad">a 20 17</text>
<polyline fill="none" stroke="#0058ad" points="320,-.5 320,-29.5 "/>
<text text-anchor="middle" x="348.5" y="-11.3" font-family="Times,serif" font-size="14.00" fill="#0058ad">a 20 18</text>
<polyline fill="none" stroke="#0058ad" points="377,-.5 377,-29.5 "/>
<text text-anchor="middle" x="1305" y="-11.3" font-family="Times,serif" font-size="14.00" fill="#0058ad">r 6 [1 2 3 4 5 6 7 8 9 10 11 13 12 14 17 18 15 16 19 20 21 22 23 24 25 27 26 28 29 30 31 32 33 34 35 36 37 38 39 40 41 42 43 44 45 46 47 48 49 50 51 52 53 54 55 56 57 58 59 60 61 62 63 64 65 66 67 68 69 70 71 72 73 74 75 76 77 78 79 80 81 82 83 84 85 86 87 88 89 90 91 92 93 94 95 96 97 98 99 100 101 102 103 104 105 106]</text>
</g>
<!-- T2903&#45;&gt;T2906 -->
<g id="edge2" class="edge">
<title>T2903:f2&#45;&gt;T2906:f0</title>
<path fill="none" stroke="#c02700" d="M348.5,-30C348.5,-53.6184 318.5764,-35.5595 298.5,-48 239.2821,-84.6949 185.0544,-88.4587 179.8999,-151.767"/>
<polygon fill="#c02700" stroke="#c02700" points="176.3932,-151.8709 179.5,-162 183.3879,-152.1443 176.3932,-151.8709"/>
<text text-anchor="middle" x="245.5" y="-92.3" font-family="Times,serif" font-size="14.00" fill="#c02700">ww</text>
</g>
<!-- T2902&#45;&gt;T2903 -->
<g id="edge3" class="edge">
<title>T2902:f0&#45;&gt;T2903:f1</title>
<path fill="none" stroke="#5b00c0" d="M486.5,-96C444.1473,-96 313.0844,-78.6427 293.8631,-39.7669"/>
<polygon fill="#5b00c0" stroke="#5b00c0" points="297.2536,-38.8965 291.5,-30 290.4499,-40.5427 297.2536,-38.8965"/>
<text text-anchor="middle" x="329" y="-51.8" font-family="Times,serif" font-size="14.00" fill="#5b00c0">rw</text>
</g>
</g>
</svg>
