<?xml version="1.0" encoding="UTF-8" standalone="no"?>
<!DOCTYPE svg PUBLIC "-//W3C//DTD SVG 1.1//EN"
 "http://www.w3.org/Graphics/SVG/1.1/DTD/svg11.dtd">
<!-- Generated by graphviz version 2.40.1 (20161225.0304)
 -->
<!-- Title: a_graph Pages: 1 -->
<svg width="317pt" height="119pt"
 viewBox="0.00 0.00 317.00 119.00" xmlns="http://www.w3.org/2000/svg" xmlns:xlink="http://www.w3.org/1999/xlink">
<g id="graph0" class="graph" transform="scale(1 1) rotate(0) translate(4 115)">
<title>a_graph</title>
<polygon fill="#ffffff" stroke="transparent" points="-4,4 -4,-115 313,-115 313,4 -4,4"/>
<!-- T51 -->
<g id="node1" class="node">
<title>T51</title>
<polygon fill="none" stroke="#0058ad" points="0,-81.5 0,-110.5 309,-110.5 309,-81.5 0,-81.5"/>
<text text-anchor="middle" x="22" y="-92.3" font-family="Times,serif" font-size="14.00" fill="#0058ad">a 7 1</text>
<polyline fill="none" stroke="#0058ad" points="44,-81.5 44,-110.5 "/>
<text text-anchor="middle" x="66" y="-92.3" font-family="Times,serif" font-size="14.00" fill="#0058ad">a 8 6</text>
<polyline fill="none" stroke="#0058ad" points="88,-81.5 88,-110.5 "/>
<text text-anchor="middle" x="198.5" y="-92.3" font-family="Times,serif" font-size="14.00" fill="#0058ad">r 9 [1 2 3 4 6 5 7 8 9 10 12 11 13 14]</text>
</g>
<!-- T53 -->
<g id="node2" class="node">
<title>T53</title>
<polygon fill="none" stroke="#0058ad" points="71,-.5 71,-29.5 214,-29.5 214,-.5 71,-.5"/>
<text text-anchor="middle" x="96" y="-11.3" font-family="Times,serif" font-size="14.00" fill="#0058ad">a 9 15</text>
<polyline fill="none" stroke="#0058ad" points="121,-.5 121,-29.5 "/>
<text text-anchor="middle" x="167.5" y="-11.3" font-family="Times,serif" font-size="14.00" fill="#0058ad">r 8 [1 2 3 4 5]</text>
</g>
<!-- T51&#45;&gt;T53 -->
<g id="edge1" class="edge">
<title>T51:f2&#45;&gt;T53:f0</title>
<path fill="none" stroke="#5b00c0" d="M198.5,-81C198.5,-58.8511 121.0425,-55.9712 100.4679,-38.9407"/>
<polygon fill="#5b00c0" stroke="#5b00c0" points="103.4166,-37.0412 95.5,-30 97.2977,-40.4412 103.4166,-37.0412"/>
<text text-anchor="middle" x="181" y="-51.8" font-family="Times,serif" font-size="14.00" fill="#5b00c0">rw</text>
</g>
<!-- T53&#45;&gt;T51 -->
<g id="edge2" class="edge">
<title>T53:f1&#45;&gt;T51:f1</title>
<path fill="none" stroke="#5b00c0" d="M167.5,-30C167.5,-60.8337 127.4216,-32.9685 100.5,-48 85.3331,-56.4684 71.7069,-58.8469 67.1303,-70.9087"/>
<polygon fill="#5b00c0" stroke="#5b00c0" points="63.6398,-70.5698 65.5,-81 70.5502,-71.6863 63.6398,-70.5698"/>
<text text-anchor="middle" x="108" y="-51.8" font-family="Times,serif" font-size="14.00" fill="#5b00c0">rw</text>
</g>
</g>
</svg>
