<?xml version="1.0" encoding="UTF-8" standalone="no"?>
<!DOCTYPE svg PUBLIC "-//W3C//DTD SVG 1.1//EN"
 "http://www.w3.org/Graphics/SVG/1.1/DTD/svg11.dtd">
<!-- Generated by graphviz version 2.40.1 (20161225.0304)
 -->
<!-- Title: a_graph Pages: 1 -->
<svg width="1960pt" height="200pt"
 viewBox="0.00 0.00 1960.00 200.00" xmlns="http://www.w3.org/2000/svg" xmlns:xlink="http://www.w3.org/1999/xlink">
<g id="graph0" class="graph" transform="scale(1 1) rotate(0) translate(4 196)">
<title>a_graph</title>
<polygon fill="#ffffff" stroke="transparent" points="-4,4 -4,-196 1956,-196 1956,4 -4,4"/>
<!-- T5473 -->
<g id="node1" class="node">
<title>T5473</title>
<polygon fill="none" stroke="#0058ad" points="0,-162.5 0,-191.5 1952,-191.5 1952,-162.5 0,-162.5"/>
<text text-anchor="middle" x="25" y="-173.3" font-family="Times,serif" font-size="14.00" fill="#0058ad">a 32 7</text>
<polyline fill="none" stroke="#0058ad" points="50,-162.5 50,-191.5 "/>
<text text-anchor="middle" x="664.5" y="-173.3" font-family="Times,serif" font-size="14.00" fill="#0058ad">r 29 [1 2 3 4 5 6 7 8 9 10 11 12 13 14 15 16 17 18 20 22 21 23 19 24 25 26 27 28 29 30 31 32 33 34 35 36 37 40 38 39 41 43 44 45 42 46 47 48 49 50 51 52 53 54 55 56 57 58 59 60 61 62 63 64 66 65 69 68 70 72 73 67]</text>
<polyline fill="none" stroke="#0058ad" points="1279,-162.5 1279,-191.5 "/>
<text text-anchor="middle" x="1565.5" y="-173.3" font-family="Times,serif" font-size="14.00" fill="#0058ad">r 31 [1 2 3 4 7 8 9 5 6 10 11 13 14 12 15 16 17 18 19 20 21 22 23 24 26 30 25 28 29 27 31 32 33 36]</text>
<polyline fill="none" stroke="#0058ad" points="1852,-162.5 1852,-191.5 "/>
<text text-anchor="middle" x="1902" y="-173.3" font-family="Times,serif" font-size="14.00" fill="#0058ad">r 32 [1 4 2 5 7]</text>
</g>
<!-- T5470 -->
<g id="node2" class="node">
<title>T5470</title>
<polygon fill="none" stroke="#0058ad" points="1168.5,-81.5 1168.5,-110.5 1433.5,-110.5 1433.5,-81.5 1168.5,-81.5"/>
<text text-anchor="middle" x="1197" y="-92.3" font-family="Times,serif" font-size="14.00" fill="#0058ad">a 31 34</text>
<polyline fill="none" stroke="#0058ad" points="1225.5,-81.5 1225.5,-110.5 "/>
<text text-anchor="middle" x="1250.5" y="-92.3" font-family="Times,serif" font-size="14.00" fill="#0058ad">a 3 28</text>
<polyline fill="none" stroke="#0058ad" points="1275.5,-81.5 1275.5,-110.5 "/>
<text text-anchor="middle" x="1315" y="-92.3" font-family="Times,serif" font-size="14.00" fill="#0058ad">r 32 [1 4 2]</text>
<polyline fill="none" stroke="#0058ad" points="1354.5,-81.5 1354.5,-110.5 "/>
<text text-anchor="middle" x="1394" y="-92.3" font-family="Times,serif" font-size="14.00" fill="#0058ad">r 32 [1 4 2]</text>
</g>
<!-- T5473&#45;&gt;T5470 -->
<g id="edge1" class="edge">
<title>T5473:f2&#45;&gt;T5470:f0</title>
<path fill="none" stroke="#5b00c0" d="M1566,-162C1566,.0021 1212.6851,-264.7284 1197.5036,-121.0625"/>
<polygon fill="#5b00c0" stroke="#5b00c0" points="1200.9956,-120.8125 1197,-111 1194.0044,-121.1625 1200.9956,-120.8125"/>
<text text-anchor="middle" x="1569.5" y="-132.8" font-family="Times,serif" font-size="14.00" fill="#5b00c0">rw</text>
</g>
<!-- T5467 -->
<g id="node3" class="node">
<title>T5467</title>
<polygon fill="none" stroke="#0058ad" points="751,-.5 751,-29.5 805,-29.5 805,-.5 751,-.5"/>
<text text-anchor="middle" x="778" y="-11.3" font-family="Times,serif" font-size="14.00" fill="#0058ad">a 32 5</text>
</g>
<!-- T5470&#45;&gt;T5467 -->
<g id="edge2" class="edge">
<title>T5470:f2&#45;&gt;T5467:f0</title>
<path fill="none" stroke="#5b00c0" d="M1315,-81C1315,-26.609 899.3664,-45.1118 813.6044,-31.7099"/>
<polygon fill="#5b00c0" stroke="#5b00c0" points="814.2821,-28.2757 803.7699,-29.5961 812.8112,-35.1194 814.2821,-28.2757"/>
<text text-anchor="middle" x="1297.5" y="-51.8" font-family="Times,serif" font-size="14.00" fill="#5b00c0">rw</text>
</g>
<!-- T5467&#45;&gt;T5473 -->
<g id="edge3" class="edge">
<title>T5467:f0&#45;&gt;T5473:f0</title>
<path fill="none" stroke="#c02700" d="M752.2147,-29.5502C751.809,-29.7054 751.4039,-29.8555 751,-30 599.9169,-84.0353 49.3684,-1.7028 25.7817,-151.775"/>
<polygon fill="#c02700" stroke="#c02700" points="22.2726,-151.7623 25,-162 29.2522,-152.2959 22.2726,-151.7623"/>
<text text-anchor="middle" x="124" y="-92.3" font-family="Times,serif" font-size="14.00" fill="#c02700">ww</text>
</g>
</g>
</svg>
