<?xml version="1.0" encoding="UTF-8" standalone="no"?>
<!DOCTYPE svg PUBLIC "-//W3C//DTD SVG 1.1//EN"
 "http://www.w3.org/Graphics/SVG/1.1/DTD/svg11.dtd">
<!-- Generated by graphviz version 2.40.1 (20161225.0304)
 -->
<!-- Title: a_graph Pages: 1 -->
<svg width="2120pt" height="200pt"
 viewBox="0.00 0.00 2120.00 200.00" xmlns="http://www.w3.org/2000/svg" xmlns:xlink="http://www.w3.org/1999/xlink">
<g id="graph0" class="graph" transform="scale(1 1) rotate(0) translate(4 196)">
<title>a_graph</title>
<polygon fill="#ffffff" stroke="transparent" points="-4,4 -4,-196 2116,-196 2116,4 -4,4"/>
<!-- T7161 -->
<g id="node1" class="node">
<title>T7161</title>
<polygon fill="none" stroke="#0058ad" points="0,-162.5 0,-191.5 2112,-191.5 2112,-162.5 0,-162.5"/>
<text text-anchor="middle" x="605.5" y="-173.3" font-family="Times,serif" font-size="14.00" fill="#0058ad">r 34 [1 2 5 4 6 7 3 8 9 11 10 12 13 14 15 16 17 18 19 20 21 22 23 24 25 27 28 26 29 30 31 32 33 34 35 36 37 38 39 40 41 42 43 44 45 46 48 47 49 50 51 52 55 56 57 53 54 58 59 61 62 60 63 64 65 66 67 68 70 71 69]</text>
<polyline fill="none" stroke="#0058ad" points="1211,-162.5 1211,-191.5 "/>
<text text-anchor="middle" x="1661.5" y="-173.3" font-family="Times,serif" font-size="14.00" fill="#0058ad">r 40 [1 2 3 4 5 6 7 8 9 10 11 13 14 15 16 18 19 17 12 20 21 22 23 25 26 27 28 24 29 30 31 32 33 35 36 37 38 39 40 34 42 43 41 44 45 46 47 48 49 50 51 52 53]</text>
</g>
<!-- T7163 -->
<g id="node2" class="node">
<title>T7163</title>
<polygon fill="none" stroke="#0058ad" points="1374,-81.5 1374,-110.5 1744,-110.5 1744,-81.5 1374,-81.5"/>
<text text-anchor="middle" x="1402.5" y="-92.3" font-family="Times,serif" font-size="14.00" fill="#0058ad">a 37 33</text>
<polyline fill="none" stroke="#0058ad" points="1431,-81.5 1431,-110.5 "/>
<text text-anchor="middle" x="1495" y="-92.3" font-family="Times,serif" font-size="14.00" fill="#0058ad">r 41 [1 4 2 3 8 9 10]</text>
<polyline fill="none" stroke="#0058ad" points="1559,-81.5 1559,-110.5 "/>
<text text-anchor="middle" x="1587.5" y="-92.3" font-family="Times,serif" font-size="14.00" fill="#0058ad">a 40 54</text>
<polyline fill="none" stroke="#0058ad" points="1616,-81.5 1616,-110.5 "/>
<text text-anchor="middle" x="1680" y="-92.3" font-family="Times,serif" font-size="14.00" fill="#0058ad">r 41 [1 4 2 3 8 9 10]</text>
</g>
<!-- T7161&#45;&gt;T7163 -->
<g id="edge1" class="edge">
<title>T7161:f1&#45;&gt;T7163:f2</title>
<path fill="none" stroke="#5b00c0" d="M1662,-162C1662,-125.9575 1601.7474,-145.9577 1589.9793,-120.8611"/>
<polygon fill="#5b00c0" stroke="#5b00c0" points="1593.3996,-120.1156 1588,-111 1586.5365,-121.4933 1593.3996,-120.1156"/>
<text text-anchor="middle" x="1658.5" y="-132.8" font-family="Times,serif" font-size="14.00" fill="#5b00c0">rw</text>
</g>
<!-- T7162 -->
<g id="node3" class="node">
<title>T7162</title>
<polygon fill="none" stroke="#0058ad" points="1162.5,-.5 1162.5,-29.5 1397.5,-29.5 1397.5,-.5 1162.5,-.5"/>
<text text-anchor="middle" x="1191" y="-11.3" font-family="Times,serif" font-size="14.00" fill="#0058ad">a 34 69</text>
<polyline fill="none" stroke="#0058ad" points="1219.5,-.5 1219.5,-29.5 "/>
<text text-anchor="middle" x="1283.5" y="-11.3" font-family="Times,serif" font-size="14.00" fill="#0058ad">r 41 [1 4 2 3 8 9 10]</text>
<polyline fill="none" stroke="#0058ad" points="1347.5,-.5 1347.5,-29.5 "/>
<text text-anchor="middle" x="1372.5" y="-11.3" font-family="Times,serif" font-size="14.00" fill="#0058ad">a 41 5</text>
</g>
<!-- T7163&#45;&gt;T7162 -->
<g id="edge2" class="edge">
<title>T7163:f1&#45;&gt;T7162:f2</title>
<path fill="none" stroke="#5b00c0" d="M1495,-81C1495,-32.3185 1455.9038,-17.0091 1408.2807,-15.1905"/>
<polygon fill="#5b00c0" stroke="#5b00c0" points="1408.0631,-11.6859 1398,-15 1407.9334,-18.6847 1408.0631,-11.6859"/>
<text text-anchor="middle" x="1499.5" y="-51.8" font-family="Times,serif" font-size="14.00" fill="#5b00c0">rw</text>
</g>
<!-- T7162&#45;&gt;T7161 -->
<g id="edge3" class="edge">
<title>T7162:f0&#45;&gt;T7161:f0</title>
<path fill="none" stroke="#c000a5" d="M1162,-15C1037.4846,-15 628.235,-32.9602 605.9473,-151.7414"/>
<polygon fill="#c000a5" stroke="#c000a5" points="602.4344,-151.7205 605,-162 609.4048,-152.3642 602.4344,-151.7205"/>
<text text-anchor="middle" x="690.5" y="-92.3" font-family="Times,serif" font-size="14.00" fill="#c000a5">wr</text>
</g>
</g>
</svg>
